<?xml version="1.0" encoding="UTF-8"?>
<svg version="1.1" xmlns="http://www.w3.org/2000/svg" width="512" height="512">
<path d="M0 0 C0.89115509 -0.00974854 1.78231018 -0.01949707 2.70046997 -0.02954102 C22.63293108 -0.20264286 41.86559565 0.06369901 61.4453125 4.23828125 C62.77079102 4.51115967 62.77079102 4.51115967 64.12304688 4.78955078 C105.34784078 13.49342708 143.65278781 33.55407357 174.4453125 62.23828125 C175.83675916 63.45166344 177.23239889 64.66025928 178.6328125 65.86328125 C185.12642006 71.55168147 190.72060083 77.62806502 196.12890625 84.36328125 C197.62026628 86.21427785 199.13192996 88.04918974 200.66796875 89.86328125 C211.37655764 102.55494215 219.73850793 116.5738543 227.4453125 131.23828125 C227.79303711 131.88893555 228.14076172 132.53958984 228.49902344 133.20996094 C239.66788692 154.35997462 246.75126165 178.69014258 250.4453125 202.23828125 C250.62787598 203.39384521 250.81043945 204.54940918 250.99853516 205.73999023 C252.59886637 217.00999862 252.84447883 228.17905615 252.8203125 239.55078125 C252.81949677 240.99969254 252.81949677 240.99969254 252.81866455 242.47787476 C252.75654087 266.55129834 249.41615617 289.15610162 242.4453125 312.23828125 C242.19442871 313.07343262 241.94354492 313.90858398 241.68505859 314.76904297 C231.64027637 347.38390177 213.65619439 377.32137709 190.4453125 402.23828125 C189.23193031 403.62972791 188.02333447 405.02536764 186.8203125 406.42578125 C183.52747003 410.20645224 180.02403074 413.73050676 176.4453125 417.23828125 C175.32189453 418.39263672 175.32189453 418.39263672 174.17578125 419.5703125 C130.01226374 462.72293404 66.64321487 481.96836724 6.07421875 481.38671875 C-18.74997468 480.95201922 -43.05000259 476.14365246 -66.5546875 468.23828125 C-67.23756836 468.01060059 -67.92044922 467.78291992 -68.62402344 467.54833984 C-93.70572891 459.04178012 -117.04104417 445.94674388 -137.5546875 429.23828125 C-138.95654297 428.14 -138.95654297 428.14 -140.38671875 427.01953125 C-144.71446758 423.62323056 -148.69308793 420.16424081 -152.5546875 416.23828125 C-153.93914062 414.88863281 -153.93914062 414.88863281 -155.3515625 413.51171875 C-161.07941969 407.90907115 -166.44354763 402.2103783 -171.42578125 395.91796875 C-172.80070243 394.18733402 -174.20791625 392.48165502 -175.65234375 390.80859375 C-207.32119054 353.90950185 -227.34876896 301.35224777 -227.79296875 252.68359375 C-227.8027626 251.79257462 -227.81255646 250.90155548 -227.82264709 249.98353577 C-228.06977464 221.65429212 -225.7888597 195.50365266 -217.5546875 168.23828125 C-217.17836182 166.9855542 -217.17836182 166.9855542 -216.79443359 165.70751953 C-203.42490392 122.29738749 -175.36083111 81.26686088 -139.5546875 53.23828125 C-138.56984375 52.44808594 -137.585 51.65789062 -136.5703125 50.84375 C-98.53859031 20.59941859 -48.96468094 0.44659656 0 0 Z " fill="#F85565" transform="translate(243.5546875,15.76171875)"/>
<path d="M0 0 C1.1746582 0.3700415 1.1746582 0.3700415 2.37304688 0.74755859 C29.65818836 9.58755372 54.2033473 27.06211515 69 52 C69.41233887 52.6919043 69.82467773 53.38380859 70.24951172 54.09667969 C80.81688562 72.17276201 87.36611368 91.93468511 87.203125 113.00390625 C87.21366676 115.06445948 87.22542197 117.1250068 87.23828125 119.18554688 C87.24859759 122.38041973 87.24992539 125.57445157 87.22998047 128.76928711 C87.21513541 131.88986296 87.23773937 135.00845734 87.265625 138.12890625 C87.24257294 139.54182701 87.24257294 139.54182701 87.21905518 140.98329163 C87.31323767 147.48170261 88.97404 151.52544792 92.61566162 156.90171814 C96.17356502 162.29453559 95.5217938 168.79488451 95 175 C93.87266974 179.19679383 92.55762849 183.426913 89.45019531 186.56518555 C87.23579689 190.28306358 87.5981607 193.82905504 87.62890625 198.078125 C87.61151641 199.89713723 87.59393211 201.7161476 87.57617188 203.53515625 C87.56612532 206.38984714 87.56249665 209.2444133 87.56420898 212.09912109 C87.56061786 214.86332825 87.53319068 217.62658786 87.50390625 220.390625 C87.51208878 221.23361145 87.5202713 222.0765979 87.52870178 222.94512939 C87.43917413 230.14741153 85.29572357 235.19411564 80.75 240.75 C76.00832568 244.62955172 71.90729081 247.1642926 65.6875 246.875 C61.94554416 247.13042361 61.05945078 247.9344753 58.4765625 250.78125 C57.57488008 251.96891753 56.6875112 253.16754783 55.8125 254.375 C45.2135251 268.97334135 30.54135688 277.79087992 13 282 C11.02 282 9.04 282 7 282 C7 286.62 7 291.24 7 296 C8.423125 295.94199219 9.84625 295.88398438 11.3125 295.82421875 C13.20830033 295.777293 15.1041364 295.73179588 17 295.6875 C17.93457031 295.64560547 18.86914062 295.60371094 19.83203125 295.56054688 C26.32819418 295.44697759 31.15922229 296.42385753 36 301 C38.08426103 304.5214602 38.61033629 306.89365745 38 311 C36.3144855 314.03141626 34.2267742 316.76158972 32.1875 319.5625 C24.99888929 330.09684522 20.69336617 341.12408214 16.46446228 353.08161926 C13.00111146 362.87180276 9.36077037 372.59697174 5.7281189 382.32531738 C4.51167464 385.59363282 3.3075674 388.86630239 2.10473633 392.13964844 C1.35150153 394.16877847 0.59785775 396.19775673 -0.15625 398.2265625 C-0.67122795 399.64024612 -0.67122795 399.64024612 -1.1966095 401.08248901 C-1.52166977 401.95068268 -1.84673004 402.81887634 -2.18164062 403.71337891 C-2.4615686 404.47196198 -2.74149658 405.23054504 -3.02990723 406.01211548 C-4.08599492 408.17621817 -5.15107854 409.46770356 -7 411 C-20.18767702 414.03617872 -48.73744858 416.13127571 -61 410 C-61.94595337 407.9710083 -61.94595337 407.9710083 -62.93603516 405.26269531 C-63.3104776 404.24943176 -63.68492004 403.23616821 -64.07070923 402.19219971 C-64.47276581 401.08205505 -64.87482239 399.9719104 -65.2890625 398.828125 C-65.71118011 397.68075867 -66.13329773 396.53339233 -66.56820679 395.35125732 C-67.92720848 391.65326928 -69.27640044 387.95179274 -70.625 384.25 C-72.38574915 379.44187463 -74.14978311 374.634956 -75.9140625 369.828125 C-76.34580276 368.6516037 -76.77754303 367.4750824 -77.22236633 366.26290894 C-79.92537915 358.90435051 -82.63490785 351.54847892 -85.39453125 344.2109375 C-85.85582932 342.96766693 -85.85582932 342.96766693 -86.32644653 341.69927979 C-89.55612238 333.17178585 -93.93105148 325.47173282 -99.09375 317.94921875 C-103.94617736 310.83425085 -103.94617736 310.83425085 -104.25 306.125 C-102.51931142 301.79827855 -100.11827154 299.28310872 -96.14355469 296.87548828 C-93.61473315 295.84264613 -91.74175749 295.77144198 -89.015625 295.8046875 C-88.08105469 295.81113281 -87.14648438 295.81757813 -86.18359375 295.82421875 C-85.21550781 295.84097656 -84.24742187 295.85773438 -83.25 295.875 C-82.26644531 295.88402344 -81.28289062 295.89304687 -80.26953125 295.90234375 C-77.84624974 295.92587075 -75.42309369 295.96174063 -73 296 C-73 291.38 -73 286.76 -73 282 C-75.31 282 -77.62 282 -80 282 C-97.14387636 277.49474877 -112.71301478 268.15201515 -122.6875 253.375 C-125.34322415 249.36396078 -125.34322415 249.36396078 -129.421875 247.234375 C-131.09491989 247.16163392 -132.77093279 247.13928 -134.4453125 247.16796875 C-139.38825235 246.84297423 -143.26085373 244.08943646 -147 241 C-151.98229199 234.94354414 -153.12307582 229.6251683 -153.0703125 221.89453125 C-153.07890124 220.2545467 -153.08937885 218.61457116 -153.1015625 216.97460938 C-153.11820951 214.39799543 -153.12510779 211.82339151 -153.09960938 209.24682617 C-152.55729018 197.89730276 -152.55729018 197.89730276 -157.40234375 188.15234375 C-158.59253239 187.09134523 -159.79045726 186.03888075 -161 185 C-164.97581203 177.94517565 -166.35308157 169.97605977 -165 162 C-163.03971829 156.58154691 -160.89383948 151.59191783 -156.42724609 147.83740234 C-153.34086299 144.22948197 -153.3006839 141.44610185 -153.36328125 136.91015625 C-153.35290329 136.12918076 -153.34252533 135.34820526 -153.33183289 134.54356384 C-153.30223153 132.04942826 -153.30549564 129.55677835 -153.3125 127.0625 C-153.30059419 123.80320534 -153.2748207 120.54426562 -153.23828125 117.28515625 C-153.22949951 116.49116928 -153.22071777 115.69718231 -153.21166992 114.87913513 C-153.04154041 105.24648436 -151.77879347 96.01546749 -148.875 86.8125 C-147.99515598 82.85320189 -147.57340698 80.88790874 -149.34375 77.203125 C-150.73294511 75.39717135 -152.1766739 73.63222995 -153.6640625 71.90625 C-160.36113497 63.57410632 -164.12069744 52.15713769 -167 42 C-167.22558594 41.21882813 -167.45117188 40.43765625 -167.68359375 39.6328125 C-169.66066378 31.53364286 -169.13139463 23.27786162 -169 15 C-162.4 15 -155.8 15 -149 15 C-149 12.03 -149 9.06 -149 6 C-148.01 5.01 -147.02 4.02 -146 3 C-139.66666667 3.33333333 -139.66666667 3.33333333 -137 6 C-136.8046875 8.1640625 -136.8046875 8.1640625 -136.875 10.625 C-136.89304688 11.44226563 -136.91109375 12.25953125 -136.9296875 13.1015625 C-136.95289063 13.72804688 -136.97609375 14.35453125 -137 15 C-106.94171967 16.35045502 -106.94171967 16.35045502 -79.89550781 5.19335938 C-74.82211314 1.99929019 -68.71727921 0.60930822 -63 -1 C-62.22398437 -1.23203125 -61.44796875 -1.4640625 -60.6484375 -1.703125 C-41.81146819 -6.95646305 -18.52240543 -5.88098876 0 0 Z " fill="#FEBA93" transform="translate(289,85)"/>
<path d="M0 0 C0.83192871 0.22252441 1.66385742 0.44504883 2.52099609 0.67431641 C29.74853908 8.17116649 54.76250712 21.37062028 76 40 C76.85980469 40.75023437 77.71960938 41.50046875 78.60546875 42.2734375 C96.61187482 58.23675665 110.91023866 76.68054093 122 98 C122.34804688 98.66870117 122.69609375 99.33740234 123.0546875 100.02636719 C145.85374896 144.53167796 149.5308316 198.10994043 134.24609375 245.65234375 C124.06219379 275.57839362 107.43896662 300.03826565 86 323 C88.05399388 325.1016604 89.97420697 326.98167337 92.375 328.6875 C99.64335443 335.09057414 103.16668876 344.3308378 106.875 353.0625 C107.37257813 354.21427734 107.87015625 355.36605469 108.3828125 356.55273438 C109.59648631 359.36519003 110.80198082 362.18084915 112 365 C80.75316558 397.25479682 27.25995008 424.14241364 -18.46484375 425.0703125 C-19.71974609 425.03550781 -19.71974609 425.03550781 -21 425 C-19.09737286 418.40765377 -16.96965386 411.95407321 -14.55859375 405.53125 C-14.23490814 404.661017 -13.91122253 403.790784 -13.57772827 402.8941803 C-10.73287214 395.25585671 -7.86078714 387.62758933 -4.98927307 379.99925232 C-3.00374326 374.71491459 -1.06466573 369.41866034 0.8203125 364.09765625 C4.98500464 352.50502474 9.64069865 342.34020014 16.88745117 332.31079102 C20.10266585 327.86739813 20.10266585 327.86739813 21.4375 322.62109375 C20.89341119 319.3614188 20.08746716 317.57454283 18 315 C12.58457213 311.44178617 7.39480812 311.46117431 1.125 311.3125 C0.15046875 311.27833984 -0.8240625 311.24417969 -1.828125 311.20898438 C-4.21835798 311.12696658 -6.60915874 311.06179536 -9 311 C-9 306.38 -9 301.76 -9 297 C-7.5459375 296.70609375 -7.5459375 296.70609375 -6.0625 296.40625 C12.69930782 292.33725339 28.8537584 284.07318735 40 268 C42.32134534 264.67895805 44.1192274 262.32675646 48.04296875 260.87109375 C50.09860856 260.58764528 52.16442468 260.36861429 54.234375 260.22265625 C58.54339554 259.87574358 60.57808234 258.65373207 64 256 C69.03221635 249.49622168 70.13084728 244.16979029 70.140625 236.01953125 C70.15895984 234.19725319 70.17853077 232.37498723 70.19921875 230.55273438 C70.2281197 227.6868863 70.24999841 224.82181355 70.25048828 221.95581055 C70.25384112 219.18468856 70.28850331 216.41534257 70.328125 213.64453125 C70.3210553 212.79840775 70.3139856 211.95228424 70.30670166 211.08052063 C70.4180558 205.58205134 71.59736246 202.1978665 74.80474854 197.71534729 C79.01155606 191.67801029 78.938585 184.01966936 78 177 C75.36952326 169.9922698 75.36952326 169.9922698 71 164 C70.89856526 162.62744232 70.86432995 161.24982199 70.8581543 159.87353516 C70.84760262 158.55417465 70.84760262 158.55417465 70.83683777 157.2081604 C70.83267349 156.24485809 70.82850922 155.28155579 70.82421875 154.2890625 C70.80096572 152.23696953 70.77684641 150.18488623 70.75195312 148.1328125 C70.717261 144.9081427 70.68774945 141.68381546 70.67407227 138.45898438 C70.48940836 102.02621562 59.39788224 69.72290107 33.23266602 43.74438477 C11.70957852 23.26619792 -17.78521633 11.54870895 -47.375 11.75 C-48.50421875 11.74226563 -49.6334375 11.73453125 -50.796875 11.7265625 C-70.86263997 11.77247958 -93.68054181 16.39632013 -110.17993164 28.61425781 C-114.21783409 30.59842665 -117.80044836 30.37389107 -122.23828125 30.29296875 C-123.11904831 30.28872391 -123.99981537 30.28447906 -124.90727234 30.28010559 C-127.7093311 30.26336644 -130.51066009 30.2257233 -133.3125 30.1875 C-135.21678646 30.17244699 -137.12108424 30.15875966 -139.02539062 30.14648438 C-143.68387322 30.11347854 -148.34181305 30.06172929 -153 30 C-153 28.02 -153 26.04 -153 24 C-106.03945691 -3.30411119 -53.36159712 -14.35182466 0 0 Z " fill="#F87783" transform="translate(305,70)"/>
<path d="M0 0 C0.66 0 1.32 0 2 0 C2.07476562 0.53625 2.14953125 1.0725 2.2265625 1.625 C4.21113491 13.45460808 9.03147801 30.29610543 17.8515625 38.78125 C20.01427763 40.87727348 21.04829819 42.11044383 22 45 C21.67730616 50.57609647 20.11219585 56.01408091 18.57592773 61.36108398 C17.10712719 68.09116669 16.88087846 74.82820902 16.9296875 81.69140625 C16.92110979 83.31185974 16.91063632 84.9323041 16.8984375 86.55273438 C16.88173048 89.06345567 16.8750966 91.57208849 16.90039062 94.08276367 C17.03625266 109.89988303 17.03625266 109.89988303 12.59765625 114.88671875 C11.67738647 115.67695435 11.67738647 115.67695435 10.73852539 116.4831543 C6.77786386 119.93879115 5.29596949 124.77260078 4.62109375 129.8515625 C4.33310275 137.04204739 5.44236562 143.68720515 9 150 C9.83772949 150.72340576 9.83772949 150.72340576 10.69238281 151.46142578 C14.3559635 154.73853317 15.85220097 156.99638187 16.58129883 161.94726562 C16.81607239 166.75649065 16.73159786 171.56313541 16.625 176.375 C15.91974638 191.52326448 15.91974638 191.52326448 22 205 C26.35679585 209.22499362 31.08529118 211.20346912 37.125 211.25 C40.54973751 211.38440885 41.66865825 211.69419071 44.23046875 214.05859375 C46.27438529 216.63937392 48.1655016 219.26705705 50 222 C60.96650691 236.9266344 78.37475586 243.91103969 96 247 C96 251.62 96 256.24 96 261 C94.56527344 261.02578125 93.13054687 261.0515625 91.65234375 261.078125 C89.74736641 261.13442975 87.84241966 261.19177654 85.9375 261.25 C84.99455078 261.26417969 84.05160156 261.27835937 83.08007812 261.29296875 C76.89428055 261.50850177 73.07258724 262.39812262 68 266 C65.9063538 268.5298225 65.99154716 269.77089898 66.11328125 273.0703125 C66.90102502 278.13035378 69.84810624 281.91419003 72.6875 286.0625 C83.09440273 301.29053325 88.40174552 319.02994489 94.625 336.25 C95.89741874 339.76268792 97.17102106 343.27493878 98.44638062 346.78656006 C99.23410568 348.95632299 100.02005355 351.1267323 100.80386353 353.2979126 C102.83555868 358.90275709 104.95747421 364.44393923 107.2774353 369.9364624 C108 372 108 372 108 375 C64.58913594 373.26703137 19.16740798 352.0576223 -14 325 C-15.93711773 323.45785303 -17.87459001 321.91615126 -19.8125 320.375 C-21.2093692 319.25128646 -22.60563685 318.12682169 -24 317 C-22.67639049 303.10210015 -14.40079053 287.17235071 -4 278 C-2.97350525 276.96391184 -1.95156991 275.92325205 -0.9375 274.875 C-0.298125 274.25625 0.34125 273.6375 1 273 C0.47792969 272.51273437 -0.04414062 272.02546875 -0.58203125 271.5234375 C-22.03523948 250.85922642 -38.28085286 223.36049994 -47 195 C-47.29003906 194.13117188 -47.58007812 193.26234375 -47.87890625 192.3671875 C-50.55735005 184.09346059 -52.29163248 175.51713371 -54 167 C-54.23074219 165.85273438 -54.46148437 164.70546875 -54.69921875 163.5234375 C-62.71573631 114.96949427 -48.67106996 63.56154125 -20.40332031 23.92138672 C-14.24957544 15.49585225 -7.37949671 7.37949671 0 0 Z " fill="#F87783" transform="translate(120,120)"/>
<path d="M0 0 C1.1746582 0.3700415 1.1746582 0.3700415 2.37304688 0.74755859 C29.65818836 9.58755372 54.2033473 27.06211515 69 52 C69.41233887 52.6919043 69.82467773 53.38380859 70.24951172 54.09667969 C79.70627693 70.27300392 87.84904803 89.89641922 87 109 C86.67 109 86.34 109 86 109 C85.86464844 108.39414063 85.72929687 107.78828125 85.58984375 107.1640625 C82.98342034 97.01930074 78.10512156 89.65037623 69.11328125 84.15625 C67.09761553 83.05340887 65.06510598 82.00691397 63 81 C62.84144531 81.9178125 62.68289063 82.835625 62.51953125 83.78125 C61.12515683 91.11519724 59.80569338 97.18876752 55 103 C54.2265625 103.93779297 54.2265625 103.93779297 53.4375 104.89453125 C47.77871345 111.11657665 41.26137205 113.92066439 33 115 C29.22191554 115.15891468 25.44585179 115.16745071 21.66479492 115.17700195 C20.53055084 115.18357315 19.39630676 115.19014435 18.22769165 115.19691467 C14.47861659 115.21660142 10.72958162 115.22830337 6.98046875 115.23828125 C5.69431482 115.24235678 4.4081609 115.2464323 3.08303261 115.25063133 C-3.03001398 115.26933134 -9.14304073 115.28389699 -15.25611001 115.2922433 C-22.26745615 115.30197841 -29.27848345 115.32820542 -36.2897175 115.36874419 C-42.39684529 115.40281852 -48.5038417 115.414411 -54.61105919 115.41844749 C-57.18994996 115.42328646 -59.76883801 115.43482249 -62.34766579 115.45348549 C-88.55878863 115.63130444 -112.01003323 111.62664121 -132.984375 94.61328125 C-135.55368695 92.55683584 -138.23112251 90.77492147 -141 89 C-145.3791455 93.67108853 -148.34104848 98.17076013 -151 104 C-151.33 104 -151.66 104 -152 104 C-151.69233993 99.39570786 -151.31278899 95.04543706 -149.984375 90.60546875 C-147.82077672 83.83788343 -147.82077672 83.83788343 -149.33984375 77.1875 C-150.73392586 75.3893749 -152.17876876 73.62979905 -153.6640625 71.90625 C-160.36113497 63.57410632 -164.12069744 52.15713769 -167 42 C-167.22558594 41.21882813 -167.45117188 40.43765625 -167.68359375 39.6328125 C-169.66066378 31.53364286 -169.13139463 23.27786162 -169 15 C-162.4 15 -155.8 15 -149 15 C-149 12.03 -149 9.06 -149 6 C-148.01 5.01 -147.02 4.02 -146 3 C-139.66666667 3.33333333 -139.66666667 3.33333333 -137 6 C-136.8046875 8.1640625 -136.8046875 8.1640625 -136.875 10.625 C-136.89304688 11.44226563 -136.91109375 12.25953125 -136.9296875 13.1015625 C-136.95289063 13.72804688 -136.97609375 14.35453125 -137 15 C-106.94171967 16.35045502 -106.94171967 16.35045502 -79.89550781 5.19335938 C-74.82211314 1.99929019 -68.71727921 0.60930822 -63 -1 C-62.22398437 -1.23203125 -61.44796875 -1.4640625 -60.6484375 -1.703125 C-41.81146819 -6.95646305 -18.52240543 -5.88098876 0 0 Z " fill="#F7DB25" transform="translate(289,85)"/>
<path d="M0 0 C4.10074375 3.04757507 6.32017712 6.6824969 8.79833984 11.03662109 C10.957136 14.56385366 13.66163036 17.6488851 16.3125 20.8125 C17.41176976 22.15623374 18.50941049 23.50130167 19.60546875 24.84765625 C20.15895996 25.5245752 20.71245117 26.20149414 21.28271484 26.89892578 C24.2354884 30.51160267 27.18050379 34.13057622 30.125 37.75 C30.66938721 38.41749268 31.21377441 39.08498535 31.7746582 39.77270508 C34.24374548 42.80651174 36.68816014 45.84314281 39 49 C43.19441406 47.46333678 45.29582044 44.39193662 47.875 40.9375 C48.8508272 39.6612001 49.82879129 38.38653193 50.80859375 37.11328125 C51.32534668 36.44119629 51.84209961 35.76911133 52.37451172 35.07666016 C55.72473864 30.79654148 59.22468538 26.6336204 62.7512207 22.49804688 C65.76059585 18.9228098 68.44866448 15.39542194 70.8203125 11.36328125 C77.16678943 0.88711538 77.16678943 0.88711538 82.43896484 -0.76367188 C91.45229007 -2.1274981 99.69403169 -1.43703886 107.41503906 3.56176758 C110.02486473 5.92998739 110.87270366 8.29223234 111.48828125 11.71484375 C110.76299461 16.59457227 108.04765813 19.63411886 105.1875 23.5625 C97.99888929 34.09684522 93.69336617 45.12408214 89.46446228 57.08161926 C86.00111146 66.87180276 82.36077037 76.59697174 78.7281189 86.32531738 C77.51167464 89.59363282 76.3075674 92.86630239 75.10473633 96.13964844 C74.35150153 98.16877847 73.59785775 100.19775673 72.84375 102.2265625 C72.50043137 103.16901825 72.15711273 104.111474 71.8033905 105.08248901 C71.47833023 105.95068268 71.15326996 106.81887634 70.81835938 107.71337891 C70.5384314 108.47196198 70.25850342 109.23054504 69.97009277 110.01211548 C68.91400508 112.17621817 67.84892146 113.46770356 66 115 C52.81232298 118.03617872 24.26255142 120.13127571 12 114 C11.05404663 111.9710083 11.05404663 111.9710083 10.06396484 109.26269531 C9.50230118 107.74279999 9.50230118 107.74279999 8.92929077 106.19219971 C8.52723419 105.08205505 8.12517761 103.9719104 7.7109375 102.828125 C7.28881989 101.68075867 6.86670227 100.53339233 6.43179321 99.35125732 C5.07279152 95.65326928 3.72359956 91.95179274 2.375 88.25 C0.61425085 83.44187463 -1.14978311 78.634956 -2.9140625 73.828125 C-3.34580276 72.6516037 -3.77754303 71.4750824 -4.22236633 70.26290894 C-6.92537915 62.90435051 -9.63490785 55.54847892 -12.39453125 48.2109375 C-12.85582932 46.96766693 -12.85582932 46.96766693 -13.32644653 45.69927979 C-16.55612238 37.17178585 -20.93105148 29.47173282 -26.09375 21.94921875 C-30.94617736 14.83425085 -30.94617736 14.83425085 -31.25 10.125 C-29.5228713 5.80717825 -27.13640999 3.24647055 -23.12158203 0.90405273 C-16.42603212 -1.94906825 -6.97273065 -1.66910974 0 0 Z " fill="#EAEFF6" transform="translate(216,381)"/>
<path d="M0 0 C0.92065247 0.00007553 1.84130493 0.00015106 2.78985596 0.00022888 C3.77540466 0.00539017 4.76095337 0.01055145 5.77636719 0.01586914 C6.79172546 0.01728409 7.80708374 0.01869904 8.85321045 0.02015686 C12.09325111 0.02575023 15.33322244 0.03830154 18.57324219 0.05102539 C20.77115786 0.05604125 22.96907461 0.060604 25.16699219 0.06469727 C30.55243247 0.07571749 35.93783238 0.09244906 41.32324219 0.11352539 C41.17084328 1.00138481 41.17084328 1.00138481 41.0153656 1.90718079 C40.29854353 6.80444055 39.9378584 9.84999099 42.85839844 14.09399414 C43.42107422 14.94928711 43.98375 15.80458008 44.56347656 16.68579102 C45.16482422 17.54881836 45.76617187 18.4118457 46.38574219 19.30102539 C57.03030477 34.93933338 62.56104476 52.68983197 68.94824219 70.36352539 C70.22066093 73.87621331 71.49426324 77.38846417 72.7696228 80.90008545 C73.55734787 83.06984838 74.34329573 85.24025769 75.12710571 87.41143799 C77.15880087 93.01628248 79.2807164 98.55746462 81.60067749 104.04998779 C82.32324219 106.11352539 82.32324219 106.11352539 82.32324219 109.11352539 C38.91237813 107.38055677 -6.50934983 86.17114769 -39.67675781 59.11352539 C-41.61387554 57.57137842 -43.55134782 56.02967665 -45.48925781 54.48852539 C-46.88612702 53.36481185 -48.28239467 52.24034708 -49.67675781 51.11352539 C-48.48123652 38.56055186 -41.0690271 22.71559386 -31.95019531 13.98071289 C-31.19996094 13.36454102 -30.44972656 12.74836914 -29.67675781 12.11352539 C-28.88527344 11.45610352 -28.09378906 10.79868164 -27.27832031 10.12133789 C-19.52478689 4.22669576 -9.86069788 -0.02708983 0 0 Z " fill="#376DB6" transform="translate(145.6767578125,385.886474609375)"/>
<path d="M0 0 C6.20724926 -0.07469384 12.4142313 -0.12885748 18.62182617 -0.16479492 C20.72929447 -0.17979183 22.83673204 -0.2001961 24.9440918 -0.22631836 C27.99014922 -0.26310475 31.0357906 -0.27981776 34.08203125 -0.29296875 C35.00957718 -0.30845261 35.93712311 -0.32393646 36.89277649 -0.33988953 C49.79208599 -0.34313681 63.90960562 4.15376681 73.37158203 13.25146484 C79.73272208 20.08182242 83.27213521 28.57912408 86.875 37.0625 C87.37257813 38.21427734 87.87015625 39.36605469 88.3828125 40.55273438 C89.59648631 43.36519003 90.80198082 46.18084915 92 49 C60.75316558 81.25479682 7.25995008 108.14241364 -38.46484375 109.0703125 C-39.30144531 109.04710937 -40.13804687 109.02390625 -41 109 C-39.09737286 102.40765377 -36.96965386 95.95407321 -34.55859375 89.53125 C-34.23490814 88.661017 -33.91122253 87.790784 -33.57772827 86.8941803 C-30.73287214 79.25585671 -27.86078714 71.62758933 -24.98927307 63.99925232 C-23.00374326 58.71491459 -21.06466573 53.41866034 -19.1796875 48.09765625 C-15.01499536 36.50502474 -10.35930135 26.34020014 -3.11254883 16.31079102 C0.88969364 10.74997349 0.88969364 10.74997349 1 4 C0.6755878 2.66446804 0.34384301 1.33066182 0 0 Z " fill="#366CB6" transform="translate(325,386)"/>
<path d="M0 0 C3.33285926 -0.14685185 6.66487345 -0.23457648 10 -0.3125 C10.93457031 -0.35439453 11.86914062 -0.39628906 12.83203125 -0.43945312 C19.32819418 -0.55302241 24.15922229 0.42385753 29 5 C31.08426103 8.5214602 31.61033629 10.89365745 31 15 C29.3144855 18.03141626 27.2267742 20.76158972 25.1875 23.5625 C17.99888929 34.09684522 13.69336617 45.12408214 9.46446228 57.08161926 C6.00111146 66.87180276 2.36077037 76.59697174 -1.2718811 86.32531738 C-2.48832536 89.59363282 -3.6924326 92.86630239 -4.89526367 96.13964844 C-5.64849847 98.16877847 -6.40214225 100.19775673 -7.15625 102.2265625 C-7.49956863 103.16901825 -7.84288727 104.111474 -8.1966095 105.08248901 C-8.52166977 105.95068268 -8.84673004 106.81887634 -9.18164062 107.71337891 C-9.4615686 108.47196198 -9.74149658 109.23054504 -10.02990723 110.01211548 C-11.0913622 112.18721664 -12.11680386 113.48574858 -14 115 C-16.69921875 115.29296875 -16.69921875 115.29296875 -19.6875 115.1875 C-20.68136719 115.16042969 -21.67523438 115.13335937 -22.69921875 115.10546875 C-23.45847656 115.07066406 -24.21773438 115.03585937 -25 115 C-28.21101733 85.94285514 -28.21101733 85.94285514 -25.9140625 82.2578125 C-24.62728954 80.82227966 -23.31425295 79.4104178 -22 78 C-20.520691 74.85762127 -20.520691 74.85762127 -21 71 C-23.51858776 67.43831365 -26.62246373 64.58255429 -29.8125 61.625 C-30.65876953 60.80644531 -31.50503906 59.98789062 -32.37695312 59.14453125 C-36.35175001 55.1144093 -36.35175001 55.1144093 -41 52 C-41 50 -41 50 -38.8203125 47.74609375 C-37.88960938 46.83988281 -36.95890625 45.93367188 -36 45 C-34.26625009 43.03670376 -32.5589561 41.06716563 -30.875 39.0625 C-30.39981934 38.49893799 -29.92463867 37.93537598 -29.43505859 37.35473633 C-25.62096618 32.80233113 -21.93511632 28.15746862 -18.2890625 23.4699707 C-13.99670577 17.95965775 -9.58684493 12.54822092 -5.15087891 7.15307617 C-4.62413574 6.50959229 -4.09739258 5.8661084 -3.5546875 5.203125 C-3.08530762 4.63239258 -2.61592773 4.06166016 -2.13232422 3.47363281 C-0.91144939 1.98152438 -0.91144939 1.98152438 0 0 Z " fill="#EAEFF6" transform="translate(296,381)"/>
<path d="M0 0 C0.78310547 0.24669434 1.56621094 0.49338867 2.37304688 0.74755859 C29.65818836 9.58755372 54.2033473 27.06211515 69 52 C69.41233887 52.6919043 69.82467773 53.38380859 70.24951172 54.09667969 C79.70627693 70.27300392 87.84904803 89.89641922 87 109 C86.67 109 86.34 109 86 109 C85.86464844 108.39414063 85.72929687 107.78828125 85.58984375 107.1640625 C82.98342034 97.01930074 78.10512156 89.65037623 69.11328125 84.15625 C67.0513127 82.96975596 67.0513127 82.96975596 64.9453125 82.19628906 C63 81 63 81 62.19799805 79.06738281 C62.05402588 78.28717773 61.91005371 77.50697266 61.76171875 76.703125 C61.58535889 75.83341064 61.40899902 74.96369629 61.22729492 74.06762695 C60.96009644 72.67290161 60.96009644 72.67290161 60.6875 71.25 C56.45311063 51.61570853 46.38808465 35.97092507 29.4375 24.8125 C17.76353095 18.11552089 4.49288515 15.88046445 -8.79077148 15.79467773 C-9.74764359 15.78477814 -10.70451569 15.77487854 -11.69038391 15.76467896 C-14.83392922 15.73324571 -17.9774896 15.70837879 -21.12109375 15.68359375 C-23.30827717 15.66300851 -25.49545676 15.64201163 -27.68263245 15.62062073 C-33.42496624 15.5655622 -39.16733498 15.51608169 -44.909729 15.46777344 C-50.77513723 15.41743965 -56.64049505 15.36181571 -62.50585938 15.30664062 C-74.00386313 15.19925756 -85.50191076 15.09776889 -97 15 C-87.35540202 7.17765754 -75.35117346 2.31436845 -63.4375 -1 C-62.38719604 -1.2928186 -62.38719604 -1.2928186 -61.31567383 -1.59155273 C-41.95690612 -6.58139672 -19.00785787 -6.03512319 0 0 Z " fill="#F2BB10" transform="translate(289,85)"/>
<path d="M0 0 C3.4375 0.8125 3.4375 0.8125 5.4375 2.8125 C5.76879883 5.5871582 5.76879883 5.5871582 5.89453125 9.11328125 C5.95576172 10.40169922 6.01699219 11.69011719 6.08007812 13.01757812 C6.1960032 15.7127558 6.29343393 18.40724516 6.38476562 21.10351562 C7.21406972 37.69780849 14.11974552 54.29021695 26.4375 65.8125 C41.84442281 78.65567179 57.07128418 82.94995433 76.67700195 82.97021484 C77.76429092 82.97529556 78.8515799 82.98037628 79.97181702 82.98561096 C82.31745428 82.99625865 84.66310134 83.00490047 87.00875282 83.01173019 C90.71977073 83.02357794 94.43067533 83.04304134 98.14164734 83.06484985 C108.68724968 83.12630087 119.2328354 83.18088382 129.77856445 83.21386719 C136.24050595 83.23476994 142.70223347 83.27002411 149.16405296 83.31462479 C151.62525104 83.32880472 154.08648688 83.3375117 156.54772377 83.34067917 C159.98036911 83.34556873 163.41244121 83.36867227 166.8449707 83.39599609 C168.37311401 83.39148689 168.37311401 83.39148689 169.93212891 83.3868866 C170.86700638 83.39797958 171.80188385 83.40907257 172.76509094 83.42050171 C173.9809159 83.42546693 173.9809159 83.42546693 175.22130299 83.43053246 C177.95002024 83.90083425 179.3654582 85.02248615 181.4375 86.8125 C181.125 90.1875 181.125 90.1875 180.4375 93.8125 C177.23568851 95.947041 176.41385711 96.06525972 172.73590088 96.07992554 C171.76899826 96.08845551 170.80209564 96.09698547 169.80589294 96.10577393 C168.74620804 96.10486755 167.68652313 96.10396118 166.59472656 96.10302734 C165.47721512 96.10974457 164.35970367 96.11646179 163.20832825 96.12338257 C159.49821567 96.14244128 155.78828356 96.14629205 152.078125 96.1484375 C149.49517747 96.15486458 146.91223067 96.16159287 144.32928467 96.16860962 C138.90195728 96.18060533 133.47470131 96.18437416 128.04736328 96.18310547 C121.80870036 96.18191023 115.57038688 96.20288421 109.33181214 96.2345928 C103.30421929 96.26411947 97.27681253 96.27107521 91.24913788 96.26988602 C88.69930352 96.27223296 86.14946609 96.2810048 83.59967804 96.29655075 C66.95147284 96.38847053 52.06971034 95.99688006 37.0625 88 C36.39822998 87.65743164 35.73395996 87.31486328 35.04956055 86.96191406 C29.70498179 84.12870632 25.01011966 80.77229435 20.4375 76.8125 C19.2 75.85730469 19.2 75.85730469 17.9375 74.8828125 C4.45765848 63.71981874 -4.11804672 44.82182074 -6.5625 27.8125 C-6.85078369 23.4957237 -6.88772882 19.20025237 -6.875 14.875 C-6.89111328 13.75287109 -6.90722656 12.63074219 -6.92382812 11.47460938 C-6.92447266 10.40146484 -6.92511719 9.32832031 -6.92578125 8.22265625 C-6.92876221 7.25465088 -6.93174316 6.28664551 -6.93481445 5.28930664 C-6.5625 2.8125 -6.5625 2.8125 -5.26245117 0.96264648 C-3.5625 -0.1875 -3.5625 -0.1875 0 0 Z " fill="#F2BC0F" transform="translate(146.5625,88.1875)"/>
<path d="M0 0 C6.41862599 -0.44477934 6.41862599 -0.44477934 9.01171875 1.5390625 C9.56472656 2.22742188 10.11773437 2.91578125 10.6875 3.625 C16.09045853 9.58944245 24.5713135 14.59901747 32.75 15.203125 C44.42054812 15.37145021 53.8395491 13.56417431 63 6 C63.9719165 4.88671383 64.93128845 3.76229341 65.875 2.625 C67.89730986 0.41884379 68.77948267 0.02940231 71.8125 -0.375 C74.56764772 -0.375 77.25837082 -0.26343056 80 0 C81.0911782 5.94951921 81.80537593 11.78430687 78.75488281 17.21777344 C75.42790069 21.84368781 71.58790632 26.01701029 67.69580078 30.16992188 C65.65132103 32.37628816 63.78238306 34.68766133 61.9375 37.0625 C57.85330127 42.20097129 53.70983469 47.29058042 49.56616211 52.38110352 C46.69548286 55.90873252 43.8344838 59.44313562 41 63 C37.9881398 61.67789709 36.19459869 60.36610497 34.15234375 57.796875 C33.63542969 57.15363281 33.11851562 56.51039063 32.5859375 55.84765625 C32.04195312 55.15542969 31.49796875 54.46320313 30.9375 53.75 C30.36386719 53.03199219 29.79023438 52.31398438 29.19921875 51.57421875 C27.45756616 49.38944659 25.72687326 47.19646602 24 45 C23.51547363 44.38447266 23.03094727 43.76894531 22.53173828 43.13476562 C22.07911621 42.55919922 21.62649414 41.98363281 21.16015625 41.390625 C20.71720215 40.82770752 20.27424805 40.26479004 19.81787109 39.68481445 C18.93616029 38.55760322 18.0602021 37.4258695 17.18994141 36.28979492 C14.72538705 33.0925474 12.16945672 30.0604168 9.42578125 27.09765625 C-1.15111407 15.42894324 -1.15111407 15.42894324 -0.8125 6.5 C-0.60813138 4.3260569 -0.36197969 2.15331508 0 0 Z " fill="#FAA875" transform="translate(216,368)"/>
<path d="M0 0 C11.88 0 23.76 0 36 0 C29.33541342 7.77535101 29.33541342 7.77535101 25.5625 11.4375 C22.77618084 14.18666824 20.1057367 16.96239292 17.5625 19.9375 C13.95128078 24.16050224 10.01394874 28.01962102 6.0390625 31.8984375 C3.95873909 33.83096046 3.95873909 33.83096046 3 36 C4.25683594 36.38285156 4.25683594 36.38285156 5.5390625 36.7734375 C9.33207838 38.11768918 12.80224791 39.79014193 16.375 41.625 C17.01566406 41.94984375 17.65632813 42.2746875 18.31640625 42.609375 C19.87947501 43.40257407 21.44000622 44.20077031 23 45 C21.5800745 48.23048748 19.86380613 50.38242488 17.3671875 52.86328125 C16.64273438 53.58580078 15.91828125 54.30832031 15.171875 55.05273438 C14.03492188 56.17131836 14.03492188 56.17131836 12.875 57.3125 C12.14023437 58.04662109 11.40546875 58.78074219 10.6484375 59.53710938 C7.191838 62.96632384 3.69997623 66.30542761 0.0078125 69.48046875 C-4.56393946 73.42243279 -8.76989208 77.69770594 -13 82 C-17.94714133 87.03156353 -22.9321439 91.90877693 -28.28564453 96.50830078 C-30.26551618 98.23103159 -32.11668706 100.04813881 -33.9375 101.9375 C-34.93990286 102.97643691 -35.95522758 104.00368079 -37 105 C-37.33 105 -37.66 105 -38 105 C-37.49603861 98.58626987 -36.30491483 93.26025051 -33.97265625 87.28515625 C-33.66838211 86.48023239 -33.36410797 85.67530853 -33.0506134 84.84599304 C-32.06526226 82.24727281 -31.064823 79.65471673 -30.0625 77.0625 C-29.37127992 75.25902949 -28.68069213 73.45531652 -27.99072266 71.65136719 C-26.95709417 68.95024014 -25.92232679 66.24959518 -24.88275146 63.55075073 C-22.93480338 58.48621517 -21.05068899 53.40755719 -19.23828125 48.29296875 C-15.05759596 36.63176767 -10.40127275 26.39705074 -3.11279297 16.31152344 C0.88950218 10.75027889 0.88950218 10.75027889 1 4 C0.505 2.02 0.505 2.02 0 0 Z " fill="#385586" transform="translate(325,386)"/>
<path d="M0 0 C11.88 0 23.76 0 36 0 C35.67 2.97 35.34 5.94 35 9 C35.86545403 11.75795539 35.86545403 11.75795539 37.53515625 13.98046875 C38.09783203 14.83576172 38.66050781 15.69105469 39.24023438 16.57226562 C39.84158203 17.43529297 40.44292969 18.29832031 41.0625 19.1875 C51.76660863 34.91328922 57.32043381 52.79172437 63.75 70.5625 C65.04341063 74.12648455 66.33794464 77.69005828 67.63311768 81.25340271 C68.43350025 83.45660604 69.232669 85.66025082 70.03045654 87.86439514 C70.39133362 88.85990891 70.75221069 89.85542267 71.12402344 90.88110352 C71.43901794 91.751548 71.75401245 92.62199249 72.07855225 93.51881409 C72.71832436 95.24153092 73.39843033 96.94959009 74.10943604 98.64414978 C75.09363255 101.24769054 75.15771028 103.24007009 75 106 C68.27824246 100.43312161 62.2329006 94.2914864 56.11523438 88.07617188 C51.86712261 83.78698248 47.55636371 79.68472011 42.97631836 75.75366211 C38.55697829 71.83221433 34.49343874 67.5297491 30.35546875 63.31640625 C26.28945847 59.20579622 22.14399405 55.2780746 17.74414062 51.52539062 C16.07873941 50.06886392 14.4720663 48.65296538 13 47 C13 46.34 13 45.68 13 45 C19.27 42.03 25.54 39.06 32 36 C30.1103032 32.22060639 28.39624232 30.00996632 25.5625 26.9375 C25.10383545 26.44016357 24.6451709 25.94282715 24.17260742 25.43041992 C18.35514245 19.1976204 12.26962865 13.22117781 6.19946289 7.23608398 C5.39758545 6.44274658 4.59570801 5.64940918 3.76953125 4.83203125 C3.04354736 4.11764893 2.31756348 3.4032666 1.56958008 2.66723633 C0 1 0 1 0 0 Z " fill="#385586" transform="translate(151,386)"/>
<path d="M0 0 C0.00364563 0.981465 0.00729126 1.96292999 0.01104736 2.97413635 C0.0482066 12.28497594 0.10620425 21.59549116 0.18390274 30.90608311 C0.22318484 35.69122628 0.2554668 40.47619073 0.27099609 45.26147461 C0.2862909 49.89125364 0.32095905 54.52054066 0.36830902 59.1500988 C0.38299198 60.90441515 0.39103337 62.65880181 0.39188385 64.4131794 C0.40735565 80.34548363 3.35200873 93.36897003 10 108 C2.92266387 108.81314075 -1.8330974 107.80318946 -7.796875 103.85546875 C-11.99341153 100.32115164 -14.28454858 96.14635427 -16 91 C-16.07071718 88.29094558 -16.08879821 85.60297131 -16.0703125 82.89453125 C-16.07890124 81.2545467 -16.08937885 79.61457116 -16.1015625 77.97460938 C-16.11820951 75.39799543 -16.12510779 72.82339151 -16.09960938 70.24682617 C-15.55729018 58.89730276 -15.55729018 58.89730276 -20.40234375 49.15234375 C-21.59253239 48.09134523 -22.79045726 47.03888075 -24 46 C-27.98405643 38.93054649 -29.32846645 30.99123666 -28 23 C-24.93634298 13.89847879 -20.03928915 7.38321382 -11.6640625 2.69140625 C-7.5238154 0.70381254 -4.6087834 -0.0766306 0 0 Z " fill="#FAA774" transform="translate(152,224)"/>
<path d="M0 0 C7.92 0 15.84 0 24 0 C24.0678035 9.69242348 24.12283207 19.38468919 24.15543652 29.07729626 C24.17108579 33.57806911 24.19231054 38.07867115 24.22631836 42.5793457 C24.25893821 46.92356862 24.27685857 51.26762733 24.28463173 55.61196327 C24.29017053 57.26855364 24.30098652 58.92513512 24.31719017 60.5816555 C24.3389997 62.90383632 24.34196551 65.2253405 24.34057617 67.54760742 C24.351362 68.23093643 24.36214783 68.91426544 24.3732605 69.61830139 C24.33945328 74.84789434 22.84361498 77.84911585 19.5 81.75 C17.10492849 83.74589293 14.79495678 84.02760197 11.75 84.4375 C6.76590888 83.8560227 4.32648483 81.62718402 1 78 C-0.47988792 75.04022416 -0.13010399 72.04021991 -0.11352539 68.79638672 C-0.11367142 68.0548233 -0.11381744 67.31325989 -0.1139679 66.54922485 C-0.11327 64.09268287 -0.10548334 61.63621627 -0.09765625 59.1796875 C-0.09579163 57.4786076 -0.09436794 55.77752716 -0.09336853 54.07644653 C-0.08954678 49.59493533 -0.0797194 45.11345643 -0.06866455 40.63195801 C-0.05844308 36.0606327 -0.05386933 31.48930219 -0.04882812 26.91796875 C-0.03809684 17.94529601 -0.0205028 8.97265574 0 0 Z " fill="#FBA875" transform="translate(244,200)"/>
<path d="M0 0 C6.41488577 0.98915213 10.9889268 2.77931689 16 7 C22.67422795 16.13188589 24.943959 23.77454159 24 35 C22.87266974 39.19679383 21.55762849 43.426913 18.45019531 46.56518555 C16.23579689 50.28306358 16.5981607 53.82905504 16.62890625 58.078125 C16.61151641 59.89713723 16.59393211 61.7161476 16.57617188 63.53515625 C16.56612532 66.38984714 16.56249665 69.2444133 16.56420898 72.09912109 C16.56061786 74.86332825 16.53319068 77.62658786 16.50390625 80.390625 C16.51208878 81.23361145 16.5202713 82.0765979 16.52870178 82.94512939 C16.43917413 90.14741153 14.29572357 95.19411564 9.75 100.75 C3.4032499 105.94279554 -1.80700683 107.68274943 -10 107 C-9.60167969 106.05640625 -9.20335937 105.1128125 -8.79296875 104.140625 C-8.25737722 102.84392971 -7.72224626 101.54704411 -7.1875 100.25 C-6.92646484 99.63511719 -6.66542969 99.02023437 -6.39648438 98.38671875 C-1.35292972 86.05802959 -0.53565148 74.46132486 -0.48828125 61.328125 C-0.47140235 59.55164373 -0.45324788 57.77517418 -0.43388367 55.99871826 C-0.3867258 51.3628709 -0.35669647 46.72707103 -0.33044434 42.09106445 C-0.30046455 37.34446844 -0.25399485 32.59803556 -0.20898438 27.8515625 C-0.12334141 18.56779428 -0.05582432 9.28399212 0 0 Z " fill="#FAA774" transform="translate(360,225)"/>
<path d="M0 0 C5.18744517 2.59372259 8.68793005 6.1649392 12.8125 10.1875 C13.61365234 10.93064453 14.41480469 11.67378906 15.24023438 12.43945312 C20.95696687 18.02882055 20.95696687 18.02882055 21.171875 22.87890625 C20 26 20 26 17.4375 28.75 C14.36924003 32.16310763 14.54718105 34.97935809 14.7578125 39.43359375 C14.83773437 40.61050781 14.91765625 41.78742188 15 43 C15.08406388 44.71989233 15.1644914 46.43996449 15.2421875 48.16015625 C15.46945741 53.10832227 15.72872411 58.05405927 16 63 C13.30734639 64.3463268 11.19885751 64.12962636 8.1875 64.1328125 C7.02992188 64.13410156 5.87234375 64.13539063 4.6796875 64.13671875 C3.46539062 64.13285156 2.25109375 64.12898438 1 64.125 C-0.82144531 64.13080078 -0.82144531 64.13080078 -2.6796875 64.13671875 C-3.83726562 64.13542969 -4.99484375 64.13414062 -6.1875 64.1328125 C-7.25355469 64.13168457 -8.31960937 64.13055664 -9.41796875 64.12939453 C-12 64 -12 64 -14 63 C-13.94352295 62.12263184 -13.8870459 61.24526367 -13.82885742 60.34130859 C-13.63069566 57.06546724 -13.45650921 53.79011896 -13.2980957 50.51220703 C-13.22489408 49.09762206 -13.14234554 47.68348705 -13.05004883 46.27001953 C-12.223604 38.39392945 -12.223604 38.39392945 -14.03369141 30.94628906 C-15.28487605 29.56323149 -16.64059013 28.27683831 -18 27 C-18.66 24.69 -19.32 22.38 -20 20 C-13.4 13.4 -6.8 6.8 0 0 Z " fill="#FE8475" transform="translate(255,433)"/>
<path d="M0 0 C2.00770711 1.38374739 3.86273877 2.90374383 5.7578125 4.4375 C14.2449484 10.35188042 24.42322385 11.14572319 34.43017578 11.15771484 C35.36096954 11.16279556 36.29176331 11.16787628 37.25076294 11.17311096 C39.26414181 11.18377961 41.27753229 11.19241342 43.29092789 11.19923019 C46.47663762 11.21105376 49.66221391 11.23051261 52.84786987 11.25234985 C61.90260402 11.31387104 70.95732134 11.36810198 80.01220703 11.40136719 C85.55648478 11.42228127 91.1005137 11.4575493 96.64464951 11.50212479 C98.75695754 11.51630104 100.86930952 11.52501088 102.98166275 11.52817917 C105.9309127 11.53307381 108.87949787 11.55619155 111.82861328 11.58349609 C112.70247681 11.58048996 113.57634033 11.57748383 114.47668457 11.5743866 C120.42050855 11.65633523 120.42050855 11.65633523 123.57321167 13.52603149 C124.04405182 14.0124411 124.51489197 14.49885071 125 15 C124.6875 18.375 124.6875 18.375 124 22 C120.95787127 24.02808582 120.37447132 24.25085214 116.96156311 24.26069641 C116.14177979 24.26778122 115.32199646 24.27486603 114.47737122 24.28216553 C113.13324409 24.2784494 113.13324409 24.2784494 111.76196289 24.2746582 C110.34181381 24.2823246 110.34181381 24.2823246 108.89297485 24.29014587 C105.75280482 24.30407997 102.6128536 24.30308095 99.47265625 24.30078125 C97.28608621 24.30466867 95.09951692 24.30900344 92.91294861 24.31376648 C88.32044026 24.32123877 83.72800875 24.32093199 79.13549805 24.31567383 C73.27491875 24.30990554 67.4146582 24.32674122 61.55413151 24.3500185 C57.03197922 24.3648234 52.50990226 24.3656179 47.98773003 24.36250877 C45.8289674 24.36301951 43.67020027 24.36821037 41.51146126 24.37832069 C22.97192635 24.45443013 5.68262516 23.18304901 -8.62890625 9.734375 C-10 8 -10 8 -10.6875 4.75 C-10 2 -10 2 -8.9375 0.0625 C-5.64409436 -1.74356116 -3.55631328 -0.9911037 0 0 Z " fill="#F2BC0F" transform="translate(187,136)"/>
<path d="M0 0 C1.43605536 4.30816608 -0.33152268 7.37902924 -1.8671875 11.453125 C-2.17752426 12.29784363 -2.48786102 13.14256226 -2.80760193 14.01287842 C-3.82067514 16.76216541 -4.84728105 19.50615759 -5.875 22.25 C-6.56973517 24.12221756 -7.26398953 25.99461361 -7.95776367 27.8671875 C-9.95679398 33.25048473 -11.97587637 38.62609713 -14 44 C-14.40421173 45.07640747 -14.40421173 45.07640747 -14.81658936 46.17456055 C-16.29922644 50.12262373 -17.79732009 54.0643153 -19.3125 58 C-19.66618652 58.92844727 -20.01987305 59.85689453 -20.38427734 60.81347656 C-20.86888428 62.05049316 -20.86888428 62.05049316 -21.36328125 63.3125 C-21.63438721 64.00988281 -21.90549316 64.70726562 -22.18481445 65.42578125 C-23 67 -23 67 -25 68 C-26.87379605 68.07033769 -28.75001102 68.0843022 -30.625 68.0625 C-31.62789063 68.05347656 -32.63078125 68.04445313 -33.6640625 68.03515625 C-34.43492187 68.02355469 -35.20578125 68.01195312 -36 68 C-39.18707047 39.15955512 -39.18707047 39.15955512 -36.984375 35.15234375 C-35.6875 33.5625 -35.6875 33.5625 -33 31 C-31.9888778 29.67508126 -30.98336098 28.34565187 -30 27 C-27.33333333 28.33333333 -24.66666667 29.66666667 -22 31 C-19.76886563 27.66797993 -17.54045693 24.33414534 -15.3125 21 C-14.37374023 19.59814453 -14.37374023 19.59814453 -13.41601562 18.16796875 C-10.20508744 13.35998204 -7.0528832 8.54801266 -4.12963867 3.55859375 C-3 2 -3 2 0 0 Z " fill="#FDFCFD" transform="translate(307,428)"/>
<path d="M0 0 C3.83923008 1.27974336 4.3107763 2.65462929 6.3984375 6.06640625 C7.04296875 7.10990234 7.6875 8.15339844 8.3515625 9.22851562 C9.01929688 10.32873047 9.68703125 11.42894531 10.375 12.5625 C11.035 13.63564453 11.695 14.70878906 12.375 15.81445312 C13.66313328 17.90959421 14.94806706 20.00670642 16.22949219 22.10595703 C18.46097717 25.75350571 20.7262516 29.37868257 23 33 C25.64 31.02 28.28 29.04 31 27 C32.20442708 29.24609375 33.40885417 31.4921875 34.61328125 33.73828125 C35.84649693 36.00588727 35.84649693 36.00588727 37.57104492 37.35864258 C39.45512447 39.52277496 39.34167916 40.68768661 39.25 43.5234375 C39.20939453 44.8532666 39.20939453 44.8532666 39.16796875 46.20996094 C38.89784643 50.69681833 38.48980805 55.1571563 38 59.625 C37.85691406 60.98818359 37.85691406 60.98818359 37.7109375 62.37890625 C37.47856232 64.58647043 37.24153511 66.79342261 37 69 C35.20841511 69.02696365 33.41671527 69.04637917 31.625 69.0625 C30.62726563 69.07410156 29.62953125 69.08570313 28.6015625 69.09765625 C26 69 26 69 24 68 C23.02713013 65.90371704 23.02713013 65.90371704 22.00048828 63.10400391 C21.61313507 62.05846344 21.22578186 61.01292297 20.82669067 59.93569946 C20.41208588 58.79418427 19.99748108 57.65266907 19.5703125 56.4765625 C19.13870819 55.30547943 18.70710388 54.13439636 18.26242065 52.92782593 C17.11132041 49.80044209 15.96649709 46.6709019 14.82458496 43.54016113 C13.67604053 40.39594308 12.51920941 37.25479237 11.36328125 34.11328125 C9.27472803 28.43187243 7.18923357 22.74939501 5.12017822 17.06085205 C4.36252445 14.99058675 3.59511027 12.92387159 2.81878662 10.86053467 C2.45174622 9.87836975 2.08470581 8.89620483 1.70654297 7.88427734 C1.37766083 7.0141098 1.04877869 6.14394226 0.70993042 5.24740601 C0 3 0 3 0 0 Z " fill="#FDFCFD" transform="translate(204,427)"/>
<path d="M0 0 C4.10920765 1.8156964 6.45702693 4.32681668 9 8 C9 8.66 9 9.32 9 10 C12.96 10 16.92 10 21 10 C19.6966461 17.16844642 18.09177459 21.90822541 12.8125 27.1875 C6.9642197 30.95639175 1.15130823 32.75816496 -5.796875 31.640625 C-11.74910757 29.90983397 -16.75750123 26.28407207 -20 21 C-23 13.53246753 -23 13.53246753 -23 10 C-20.36 10 -17.72 10 -15 10 C-14.79375 9.278125 -14.5875 8.55625 -14.375 7.8125 C-11.27722259 1.47613711 -6.93393744 -1.00857272 0 0 Z " fill="#FAA775" transform="translate(311,224)"/>
<path d="M0 0 C4.10920765 1.8156964 6.45702693 4.32681668 9 8 C9 8.66 9 9.32 9 10 C11.64 10 14.28 10 17 10 C15.80468676 17.07751258 14.01509686 21.98490314 8.8125 27.1875 C2.9642197 30.95639175 -2.84869177 32.75816496 -9.796875 31.640625 C-15.74910757 29.90983397 -20.75750123 26.28407207 -24 21 C-27 13.53246753 -27 13.53246753 -27 10 C-23.04 10 -19.08 10 -15 10 C-14.34 8.35 -13.68 6.7 -13 5 C-8.78533565 0.58930475 -6.10598251 -0.88814291 0 0 Z " fill="#FAA775" transform="translate(207,224)"/>
<path d="M0 0 C18.81 0 37.62 0 57 0 C60 11 60 11 60 16 C42.84 16 25.68 16 8 16 C5.36 10.72 2.72 5.44 0 0 Z " fill="#F8DB25" transform="translate(169,208)"/>
<path d="M0 0 C7.01536827 1.00922842 11.75994757 5.15017905 16.06640625 10.62890625 C21.59944398 18.93423846 23.32365442 26.27265055 23.1953125 36.09375 C23.1924826 36.92588013 23.18965271 37.75801025 23.18673706 38.61535645 C23.17564286 41.24372431 23.15055925 43.8717371 23.125 46.5 C23.11495626 48.29426587 23.10583286 50.08853715 23.09765625 51.8828125 C23.07573893 56.25534279 23.0412849 60.62761143 23 65 C19.87711088 63.76585638 16.85977657 62.47670831 13.875 60.9375 C11.56275238 59.7453879 9.48439858 58.82813286 7 58 C6.98541748 57.22100342 6.97083496 56.44200684 6.95581055 55.6394043 C6.51769234 27.37417368 6.51769234 27.37417368 0 0 Z " fill="#F8DD86" transform="translate(353,167)"/>
<path d="M0 0 C18.81 0 37.62 0 57 0 C54.36 5.28 51.72 10.56 49 16 C31.84 16 14.68 16 -3 16 C-1 5 -1 5 0 0 Z " fill="#F8DB25" transform="translate(286,208)"/>
<path d="M0 0 C0.09938156 5.55007795 0.1717096 11.09963018 0.21972656 16.65039062 C0.23975767 18.53589916 0.26699073 20.42134623 0.30175781 22.30664062 C0.35065272 25.02749862 0.37305382 27.74753056 0.390625 30.46875 C0.41127014 31.30241089 0.43191528 32.13607178 0.45318604 32.99499512 C0.45590484 40.19619568 -1.71097407 45.20230164 -6.25 50.75 C-12.5967501 55.94279554 -17.80700683 57.68274943 -26 57 C-25.60167969 56.05640625 -25.20335937 55.1128125 -24.79296875 54.140625 C-18.33623644 38.62452545 -16.40518285 24.77143595 -16 8 C-15.31365479 7.73735352 -14.62730957 7.47470703 -13.92016602 7.20410156 C-13.01967529 6.8531543 -12.11918457 6.50220703 -11.19140625 6.140625 C-10.29881104 5.79547852 -9.40621582 5.45033203 -8.48657227 5.09472656 C-5.88883776 3.95106024 -2.55809969 0 0 0 Z " fill="#F2BB10" transform="translate(376,275)"/>
<path d="M0 0 C0.73605469 0.34933594 1.47210938 0.69867188 2.23046875 1.05859375 C3.69419922 1.74115234 3.69419922 1.74115234 5.1875 2.4375 C6.15042969 2.88996094 7.11335937 3.34242188 8.10546875 3.80859375 C10.76631586 4.90381422 13.16784755 5.54954796 16 6 C16.01401855 6.83640015 16.01401855 6.83640015 16.02832031 7.68969727 C16.38164875 24.55073809 18.95659274 38.49873075 26 54 C18.92266387 54.81314075 14.1669026 53.80318946 8.203125 49.85546875 C4.00658847 46.32115164 1.71545142 42.14635427 0 37 C-0.08518867 34.19573548 -0.1158852 31.4170365 -0.09765625 28.61328125 C-0.0962413 27.79627243 -0.09482635 26.97926361 -0.09336853 26.13749695 C-0.08777294 23.52912732 -0.07522129 20.92084366 -0.0625 18.3125 C-0.05748443 16.54362103 -0.05292162 14.77474072 -0.04882812 13.00585938 C-0.03780496 8.67053981 -0.02054338 4.33528448 0 0 Z " fill="#F2BB10" transform="translate(136,278)"/>
<path d="M0 0 C2.52516108 3.94689044 2.67178645 8.20300504 3.125 12.75 C3.21136719 13.5234375 3.29773438 14.296875 3.38671875 15.09375 C3.91478332 20.08940851 4.08026972 24.97740886 4 30 C1.30734639 31.3463268 -0.80114249 31.12962636 -3.8125 31.1328125 C-4.97007812 31.13410156 -6.12765625 31.13539063 -7.3203125 31.13671875 C-8.53460938 31.13285156 -9.74890625 31.12898438 -11 31.125 C-12.21429688 31.12886719 -13.42859375 31.13273437 -14.6796875 31.13671875 C-16.41605469 31.13478516 -16.41605469 31.13478516 -18.1875 31.1328125 C-19.78658203 31.13112061 -19.78658203 31.13112061 -21.41796875 31.12939453 C-24 31 -24 31 -26 30 C-25.88838822 26.85354599 -25.75819443 23.70810843 -25.625 20.5625 C-25.5940625 19.68400391 -25.563125 18.80550781 -25.53125 17.90039062 C-25.27193381 12.04416673 -24.42355815 6.68844577 -23 1 C-22.41283203 1.16153564 -21.82566406 1.32307129 -21.22070312 1.48950195 C-17.973095 2.23606622 -14.82714218 2.17112627 -11.5 2.1875 C-9.53546875 2.20876953 -9.53546875 2.20876953 -7.53125 2.23046875 C-4.32891168 2.02146658 -2.64841962 1.70931164 0 0 Z " fill="#F85C6B" transform="translate(267,466)"/>
<path d="M0 0 C2.64 1.98 5.28 3.96 8 6 C7.79141357 6.82064941 7.58282715 7.64129883 7.36791992 8.48681641 C5.14555406 17.8879699 4.46985998 26.75679581 4.3125 36.375 C4.27920924 37.80471629 4.2447095 39.23440496 4.20898438 40.6640625 C4.12545779 44.10917088 4.05803662 47.55435646 4 51 C3.34773437 51.18175781 2.69546875 51.36351562 2.0234375 51.55078125 C1.14945313 51.80214844 0.27546875 52.05351562 -0.625 52.3125 C-1.48351562 52.55613281 -2.34203125 52.79976562 -3.2265625 53.05078125 C-6.31294887 54.10710785 -9.11274326 55.4886354 -12 57 C-12.0997145 51.91379356 -12.17186281 46.82817008 -12.21972656 41.74121094 C-12.23970285 40.01487298 -12.26689372 38.28860147 -12.30175781 36.5625 C-12.57073914 22.8919194 -11.65855832 12.08403379 -1.75 1.625 C-1.1725 1.08875 -0.595 0.5525 0 0 Z " fill="#F8DD86" transform="translate(148,173)"/>
<path d="M0 0 C3.875 1.875 3.875 1.875 5 3 C5.24581355 4.68515557 5.47140942 6.37327578 5.6875 8.0625 C6.85187883 14.65493898 9.39757486 19.27040914 14.7734375 23.34375 C20.33560128 26.74419947 25.57670677 27.52649945 32 27 C39.13739382 25.11935337 43.95749687 22.22763996 48 16 C49.77091313 12.95878522 50.34078647 10.34805563 50.8125 6.875 C51.29296875 4.21875 51.29296875 4.21875 52 2 C54.625 0.375 54.625 0.375 57 0 C59.93655303 2.42551653 59.93655303 2.42551653 60.21484375 4.9453125 C58.7869359 16.16746154 53.90285868 24.14653842 45.1875 31.3125 C37.66839323 35.29320359 29.72452161 37.48787125 21.33984375 35.30859375 C10.89514565 31.87491721 4.31160545 26.64475727 -1 17 C-3.13936564 12.33229316 -3.94781914 7.09580183 -3 2 C-2.01 1.34 -1.02 0.68 0 0 Z " fill="#EEB190" transform="translate(227,341)"/>
<path d="M0 0 C1.51793152 -0.05314362 1.51793152 -0.05314362 3.06652832 -0.10736084 C7.72858987 -0.23128217 12.39052917 -0.32202038 17.05371094 -0.39160156 C19.5079964 -0.43821421 21.96197412 -0.50633462 24.41503906 -0.59667969 C45.84538222 -1.37259592 45.84538222 -1.37259592 50.88476562 2.57910156 C54.76129882 7.10991493 56.83550239 11.28632225 57.25585938 17.28808594 C56.59585938 17.94808594 55.93585938 18.60808594 55.25585938 19.28808594 C52.78344727 19.19360352 52.78344727 19.19360352 50.25585938 18.28808594 C49.00756836 16.26342773 49.00756836 16.26342773 47.81445312 13.79980469 C45.87207468 11.15339944 44.37248587 9.58355224 41.14874268 8.73052979 C35.57251538 7.95041708 29.98874257 7.96492392 24.3684082 8.05981445 C21.32677912 8.10047339 18.2986716 8.03988319 15.2578125 7.96972656 C5.09756231 7.66864741 5.09756231 7.66864741 -3.90478516 11.59814453 C-5.90361805 14.08887599 -7.42653078 16.386439 -8.74414062 19.28808594 C-10.39414063 18.95808594 -12.04414063 18.62808594 -13.74414062 18.28808594 C-14.51757812 16.17871094 -14.51757812 16.17871094 -14.74414062 13.28808594 C-13.36312627 10.97268315 -12.06179272 9.09344919 -10.36914062 7.03808594 C-9.94375 6.49667969 -9.51835937 5.95527344 -9.08007812 5.39746094 C-4.9514763 0.17138268 -4.9514763 0.17138268 0 0 Z " fill="#FF8575" transform="translate(234.744140625,307.7119140625)"/>
<path d="M0 0 C2.39453125 0.07421875 2.39453125 0.07421875 5 1 C6.51171875 3.58203125 6.51171875 3.58203125 7.6875 6.8125 C8.28111328 8.39998047 8.28111328 8.39998047 8.88671875 10.01953125 C9.25410156 11.00308594 9.62148438 11.98664063 10 13 C11.00876772 15.55055245 11.52080945 16.68533839 13.8203125 18.1953125 C16.18077395 19.06673733 18.38908635 19.49553032 20.875 19.875 C27.79679456 21.18810515 31.96652476 24.25915078 36 30 C37.15105907 32.60839205 37.99440144 35.27132666 38.8125 38 C39.04130859 38.69867188 39.27011719 39.39734375 39.50585938 40.1171875 C40.73337594 44.09629318 41.27579734 46.99258749 40 51 C37.525 51.495 37.525 51.495 35 52 C31.94510563 47.42648761 30.50757551 42.59453602 29.0703125 37.3515625 C28.0845605 34.10895723 27.30931495 32.24981158 24.64453125 30.09765625 C22.05452238 29.02263041 19.83179079 28.45186316 17.0625 28.0625 C11.26558309 27.00303376 7.68322471 25.02977097 3.875 20.4375 C-2.35954624 9.00749856 -2.35954624 9.00749856 -1.66796875 3.22265625 C-1 1 -1 1 0 0 Z " fill="#EEB190" transform="translate(280,263)"/>
<path d="M0 0 C2.625 0.375 2.625 0.375 5 1 C6.97770753 7.54352613 3.83641185 13.11539088 1 19 C-0.5538632 21.19860047 -1.83015514 22.33088857 -4 24 C-4.57621094 24.50660156 -5.15242188 25.01320313 -5.74609375 25.53515625 C-9.4419197 27.93712285 -13.61127549 28.16879569 -17.90625 28.86328125 C-22.04364767 30.38346146 -22.99953238 32.12126527 -25 36 C-26.24101177 39.56737212 -26.24101177 39.56737212 -27.125 43.25 C-28.79603399 49.79603399 -28.79603399 49.79603399 -31 52 C-33.625 51.625 -33.625 51.625 -36 51 C-37.71792433 45.9178072 -36.12329563 41.93636556 -34.5 37.0625 C-34.26796875 36.27681641 -34.0359375 35.49113281 -33.796875 34.68164062 C-31.58579069 27.94121779 -27.8835069 24.043951 -21.625 20.75 C-18.47819473 19.85091278 -15.308594 19.22659587 -12.0859375 18.66015625 C-9.51911843 17.84781089 -8.6209407 17.15516623 -7 15 C-6.07361195 12.84209312 -5.22592695 10.64954428 -4.4375 8.4375 C-2.20833333 2.20833333 -2.20833333 2.20833333 0 0 Z " fill="#EEB190" transform="translate(227,263)"/>
<path d="M0 0 C1.74367878 0.97447508 3.4787439 1.96550982 5.1875 3 C5.230221 4.66611905 5.22813832 6.33382885 5.1875 8 C4.1875 9 4.1875 9 1.5625 9.25 C-1.78440972 9.00208076 -3.82784188 8.07489624 -6.82421875 6.6796875 C-11.94836261 4.92801553 -17.20742741 5.25919727 -22.0625 7.5 C-22.97 7.995 -23.8775 8.49 -24.8125 9 C-28.125 9.25 -28.125 9.25 -30.8125 9 C-31.8125 8 -31.8125 8 -32.25 5.6875 C-31.8125 3 -31.8125 3 -29.1875 0.8125 C-19.52416962 -4.37706632 -9.8761893 -4.95562635 0 0 Z " fill="#BB9386" transform="translate(268.8125,331)"/>
<path d="M0 0 C3.13376182 1.49565905 5.88275516 3.21415152 8 6 C8 7.32 8 8.64 8 10 C0.74 10 -6.52 10 -14 10 C-13.02646068 5.13230342 -12.56543374 3.85264987 -8.74609375 0.94921875 C-5.7241809 -0.69356609 -3.33320407 -0.48482968 0 0 Z " fill="#3C3F57" transform="translate(311,224)"/>
<path d="M0 0 C3.13376182 1.49565905 5.88275516 3.21415152 8 6 C8 7.32 8 8.64 8 10 C0.74 10 -6.52 10 -14 10 C-13.02646068 5.13230342 -12.56543374 3.85264987 -8.74609375 0.94921875 C-5.7241809 -0.69356609 -3.33320407 -0.48482968 0 0 Z " fill="#3C3F57" transform="translate(207,224)"/>
<path d="M0 0 C6.27 0 12.54 0 19 0 C20.9955516 3.99110319 21.19546065 5.69986566 21 10 C16.94539603 10.34425883 13.04309575 10.53041952 9 10 C6.5625 7.25 6.5625 7.25 5 4 C3.35 2.68 1.7 1.36 0 0 Z " fill="#FCFBFB" transform="translate(311,224)"/>
<path d="M0 0 C5.94 0 11.88 0 18 0 C16.35 1.65 14.7 3.3 13 5 C12.52949219 5.92167969 12.05898437 6.84335938 11.57421875 7.79296875 C11.05472656 8.52128906 10.53523437 9.24960938 10 10 C7.08203125 10.48828125 7.08203125 10.48828125 3.8125 10.3125 C2.72582031 10.26738281 1.63914063 10.22226563 0.51953125 10.17578125 C-0.31191406 10.11777344 -1.14335937 10.05976563 -2 10 C-2.19546065 5.69986566 -1.9955516 3.99110319 0 0 Z " fill="#FCFBFB" transform="translate(182,224)"/>
<path d="M0 0 C0.625 1.8125 0.625 1.8125 1 4 C-1.22392098 7.33588148 -2.25794353 7.81176389 -5.875 9.25 C-6.73867187 9.60578125 -7.60234375 9.9615625 -8.4921875 10.328125 C-11.15398061 11.04125337 -12.44535019 10.92680319 -15 10 C-15.33 8.35 -15.66 6.7 -16 5 C-6.26689189 -1.79054054 -6.26689189 -1.79054054 0 0 Z " fill="#EEB190" transform="translate(173,244)"/>
<path d="M0 0 C5.29576664 0.25217936 9.44236418 2.51296523 14 5 C14.042721 6.66611905 14.04063832 8.33382885 14 10 C13 11 13 11 10.4375 11.3125 C6.01872783 10.91079344 2.58112403 9.64543842 -1 7 C-2.125 4.375 -2.125 4.375 -2 2 C-1.34 1.34 -0.68 0.68 0 0 Z " fill="#EEB190" transform="translate(339,243)"/>
<path d="M0 0 C1.08152344 -0.01417969 2.16304688 -0.02835938 3.27734375 -0.04296875 C6.0625 0.1875 6.0625 0.1875 8.0625 2.1875 C7.50694444 6.74305556 7.50694444 6.74305556 6.0625 8.1875 C4.08630553 8.31264928 2.10511827 8.3632276 0.125 8.375 C-0.95652344 8.38917969 -2.03804688 8.40335938 -3.15234375 8.41796875 C-5.9375 8.1875 -5.9375 8.1875 -7.9375 6.1875 C-7.18513529 0.01810941 -5.98340298 0.03557314 0 0 Z " fill="#EEB190" transform="translate(343.9375,231.8125)"/>
<path d="M0 0 C1.08152344 -0.01417969 2.16304687 -0.02835938 3.27734375 -0.04296875 C6.0625 0.1875 6.0625 0.1875 8.0625 2.1875 C7.50694444 6.74305556 7.50694444 6.74305556 6.0625 8.1875 C4.08630553 8.31264928 2.10511827 8.3632276 0.125 8.375 C-0.95652344 8.38917969 -2.03804687 8.40335938 -3.15234375 8.41796875 C-5.9375 8.1875 -5.9375 8.1875 -7.9375 6.1875 C-7.18513529 0.01810941 -5.98340298 0.03557314 0 0 Z " fill="#EEB190" transform="translate(163.9375,231.8125)"/>
<path d="M0 0 C4.95 0 9.9 0 15 0 C16.9955516 3.99110319 17.19546065 5.69986566 17 10 C11.76984656 10.52301534 11.76984656 10.52301534 9 10 C6.8125 7.25 6.8125 7.25 5 4 C3.35 2.68 1.7 1.36 0 0 Z " fill="#FBF9F9" transform="translate(207,224)"/>
<path d="M0 0 C4.62 0 9.24 0 14 0 C12.8553125 1.0828125 12.8553125 1.0828125 11.6875 2.1875 C8.91681061 4.78646573 8.91681061 4.78646573 7.6875 7.8125 C6 10 6 10 4.0390625 10.3125 C2.02334834 10.3125 0.00897668 10.16467022 -2 10 C-2.19546065 5.69986566 -1.9955516 3.99110319 0 0 Z " fill="#FCFAFA" transform="translate(290,224)"/>
<path d="M0 0 C2.5 2.25 2.5 2.25 5 5 C5 9.48312462 4.230546 10.10494889 1.37890625 13.2734375 C-0.98596741 16.2345541 -2.40568422 19.57517351 -4 23 C-4.33 23 -4.66 23 -5 23 C-3.76595745 3.76595745 -3.76595745 3.76595745 0 0 Z " fill="#F2BB16" transform="translate(142,166)"/>
</svg>
